<svg id="Capa_1" data-name="Capa 1" xmlns="http://www.w3.org/2000/svg" viewBox="0 0 48 42"><defs><style>.cls-1{fill:#fefefe;}</style></defs><title>Facebook</title><path class="cls-1" d="M24,8.56a12.5,12.5,0,0,0-2.16,24.81V25.11c0-.18,0-.23-.22-.23-.92,0-1.84,0-2.75,0-.17,0-.21,0-.21-.2q0-1.61,0-3.21c0-.18.06-.21.22-.21.92,0,1.84,0,2.75,0,.16,0,.21,0,.21-.2,0-.84,0-1.69,0-2.54a5.6,5.6,0,0,1,.56-2.6,4.08,4.08,0,0,1,3.19-2.2,11,11,0,0,1,3,.06l.66.09c.11,0,.14,0,.14.16q0,1.4,0,2.79c0,.12-.05.15-.16.15-.48,0-1,0-1.44,0a2.61,2.61,0,0,0-.78.1,1.67,1.67,0,0,0-1.23,1.64c0,.81,0,1.61,0,2.42,0,.16.1.13.19.13H29c.16,0,.22,0,.18.21-.17,1-.32,2.08-.47,3.12,0,.21-.08.3-.33.3-.81,0-1.62,0-2.43,0-.17,0-.21,0-.21.2q0,4.18,0,8.35A12.5,12.5,0,0,0,24,8.56Z"/></svg>