<svg id="Capa_1" data-name="Capa 1" xmlns="http://www.w3.org/2000/svg" viewBox="0 0 48 42"><defs><style>.cls-1{fill:#fff;}</style></defs><title>Instagram</title><path class="cls-1" d="M36.49,21c0,1.63,0,3.26,0,4.88a7.86,7.86,0,0,1-7.66,7.62c-3.18.05-6.35.05-9.53,0a7.83,7.83,0,0,1-7.75-7.75c0-3.15,0-6.29,0-9.44a7.82,7.82,0,0,1,7.79-7.75c3.15,0,6.29,0,9.44,0a7.86,7.86,0,0,1,7.71,7.61C36.52,17.75,36.49,19.36,36.49,21ZM24.05,10.5v0c-1.47,0-2.95,0-4.42,0a6,6,0,0,0-6.14,5.94c0,3,0,6,0,9.07a6,6,0,0,0,6.19,6c2.87,0,5.74,0,8.62,0a6,6,0,0,0,6.23-6.13c0-3,0-5.93,0-8.9a5.87,5.87,0,0,0-5.51-6C27.37,10.41,25.71,10.5,24.05,10.5Z"/><path class="cls-1" d="M24.05,14.46a6.33,6.33,0,1,1-6.37,6.22A6.3,6.3,0,0,1,24.05,14.46Zm4.3,6.3A4.35,4.35,0,1,0,24,25.14,4.33,4.33,0,0,0,28.35,20.76Z"/><path class="cls-1" d="M31.75,14.53a1,1,0,1,1-1-1A1,1,0,0,1,31.75,14.53Z"/></svg>